<svg width="23" height="91" viewBox="0 0 23 91" fill="none" xmlns="http://www.w3.org/2000/svg">
<path d="M4.13386 77.38C4.15086 72.3717 5.51129 66.1996 10.5562 66.1996H22.6017V75.0301H17.4151C17.398 75.0301 18.1775 77.1837 18.6848 78.8157C18.9937 79.929 19.6286 80.7534 20.7708 80.8264C21.7316 80.9161 22.6215 79.8393 22.6215 79.8393V88.4902C22.6215 88.5071 21.913 90.4111 19.827 90.3578C15.8364 90.1784 14.3853 87.1106 13.4953 79.5533C12.988 75.4787 12.5884 75.0301 11.5539 75.0132C10.7008 75.0132 9.73996 75.5152 9.70312 77.8118C9.70312 81.132 11.9705 80.8993 11.9705 80.8993V89.3708C11.9705 89.4072 4.13386 89.3175 4.13386 77.3828V77.38ZM4.31525 50.5858C4.75172 53.5303 7.20049 54.551 7.20049 54.551H4.64402V62.7897H22.6017V53.8163H14.0026C12.4778 53.7995 11.8089 53.3844 11.2648 52.8292C10.6299 52.2011 10.1764 51.1242 10.1764 49.9212V47.3919H4.64402C4.64402 47.4087 4.04599 48.7014 4.31808 50.5858H4.31525ZM0.395508 32.6754V41.5591H4.64118V45.2551H10.1736V41.5591H17.5029C19.0816 41.5591 20.3683 41.5759 21.621 40.4458C22.6555 39.4419 22.6187 38.1296 22.6187 36.5704V32.695H10.1764V27.3642H4.64402V32.695H0.398342L0.395508 32.6754ZM4.25856 13.2759C4.42295 -1.61999 18.0443 0.786017 18.0613 0.786017V16.6858H22.596V23.1832C22.596 23.1664 20.1472 25.8584 15.3234 25.8023C4.06017 25.7126 4.25856 13.7414 4.25856 13.2759ZM13.5293 9.39772C13.5123 9.41455 9.84766 9.02196 9.84766 13.2731C9.83066 17.3645 13.5123 16.9158 13.5293 16.9158V9.39772Z" fill="black"/>
</svg>
