<svg width="17" height="16" viewBox="0 0 17 16" fill="none" xmlns="http://www.w3.org/2000/svg">
<path d="M3.72222 6.92889C5.00222 9.44444 7.06 11.5022 9.58 12.7822L11.5356 10.8222C11.78 10.5778 12.1311 10.5067 12.4378 10.6044C13.4333 10.9333 14.5044 11.1111 15.6111 11.1111C16.1044 11.1111 16.5 11.5067 16.5 12V15.1111C16.5 15.6044 16.1044 16 15.6111 16C7.26444 16 0.5 9.23556 0.5 0.888889C0.5 0.395556 0.9 0 1.38889 0H4.5C4.99333 0 5.38889 0.395556 5.38889 0.888889C5.38889 1.99556 5.56667 3.06667 5.89556 4.06222C5.99333 4.36889 5.92222 4.72 5.67778 4.96444L3.72222 6.92889Z" fill="#DEDEDE"/>
</svg>
