<svg width="84" height="39" viewBox="0 0 84 39" fill="none" xmlns="http://www.w3.org/2000/svg">
<path fill-rule="evenodd" clip-rule="evenodd" d="M70.4411 25.6168V10.0601L54.8105 15.6634V19.5711L59.9716 17.6541V29.377L70.4411 25.6168Z" fill="#171716"/>
<path fill-rule="evenodd" clip-rule="evenodd" d="M64.4684 0.991699C61.4057 1.0021 58.3896 1.7434 55.671 3.15399C52.9524 4.56458 50.6098 6.60371 48.8379 9.10187L51.6396 11.0188C53.0713 8.95905 54.9776 7.27412 57.1977 6.10635C59.4178 4.93857 61.8863 4.32227 64.3947 4.3095C66.4308 4.31903 68.4448 4.732 70.3204 5.52453C72.1959 6.31707 73.8958 7.47346 75.3218 8.92687C76.7478 10.3803 77.8716 12.1019 78.6283 13.9922C79.385 15.8825 79.7595 17.9041 79.7303 19.94C79.7595 21.9759 79.385 23.9975 78.6283 25.8878C77.8716 27.7781 76.7478 29.4997 75.3218 30.9531C73.8958 32.4065 72.1959 33.5629 70.3204 34.3555C68.4448 35.148 66.4308 35.561 64.3947 35.5705C61.8863 35.5577 59.4178 34.9414 57.1977 33.7737C54.9776 32.6059 53.0713 30.921 51.6396 28.8612L48.8379 30.7781C50.5484 33.2859 52.8473 35.3364 55.5336 36.7502C58.2199 38.164 61.2116 38.8981 64.2472 38.8883C69.2726 38.9176 74.1038 36.9494 77.6781 33.4167C81.2523 29.8839 83.2768 25.076 83.3061 20.0506C83.3354 15.0252 81.3672 10.194 77.8345 6.61973C74.3017 3.04549 69.4938 1.02103 64.4684 0.991699Z" fill="#171716"/>
<path d="M40.4332 11.166H34.7561V28.566H39.9171C45.8891 28.566 48.9857 25.5431 48.9857 19.7186C48.9857 13.894 46.0366 11.0923 40.4332 11.0923M40.212 25.6169L38.2213 25.4694V14.1889H40.212C43.6773 14.1889 45.373 16.1058 45.373 20.0135C45.373 23.9211 43.751 25.7643 40.212 25.7643M11.0154 11.3135H6.59166L0.693359 28.566H4.23234L5.33827 25.027H11.9001L13.0061 28.566H16.84L11.0154 11.3135ZM6.29675 22.0779L7.99251 16.7694C8.23251 16.0444 8.42946 15.3058 8.58234 14.5575C8.7298 15.1474 8.95099 15.8847 9.2459 16.8431L10.9417 22.0779H6.29675ZM28.7103 22.594L27.8993 21.3406C28.9427 21.0324 29.8552 20.3884 30.4951 19.5085C31.1351 18.6286 31.4666 17.5621 31.4383 16.4745C31.4383 13.0092 29.2264 11.166 25.1713 11.166H18.9781V28.566H22.4434V22.0041H24.3603L28.2679 28.566H32.3968L28.7103 22.594ZM22.4434 14.1152H24.8764C26.7934 14.1152 27.7518 14.9262 27.7518 16.6219C27.7518 18.3177 26.7196 19.055 24.8027 19.055H22.4434V14.1152Z" fill="#171716"/>
</svg>
