<svg width="16" height="17" viewBox="0 0 16 17" fill="none" xmlns="http://www.w3.org/2000/svg">
<path d="M3.22222 7.25262C4.50222 9.76817 6.56 11.826 9.08 13.106L11.0356 11.146C11.28 10.9015 11.6311 10.8304 11.9378 10.9282C12.9333 11.2571 14.0044 11.4348 15.1111 11.4348C15.6044 11.4348 16 11.8304 16 12.3237V15.4348C16 15.9282 15.6044 16.3237 15.1111 16.3237C6.76444 16.3237 0 9.55929 0 1.21262C0 0.719286 0.4 0.32373 0.888889 0.32373H4C4.49333 0.32373 4.88889 0.719286 4.88889 1.21262C4.88889 2.31929 5.06667 3.3904 5.39556 4.38595C5.49333 4.69262 5.42222 5.04373 5.17778 5.28817L3.22222 7.25262Z" fill="#DEDEDE"/>
</svg>
